<?xml version="1.0" encoding="UTF-8" standalone="no"?>
<!-- Created with Inkscape (http://www.inkscape.org/) -->

<svg
   width="300.10001mm"
   height="151.19mm"
   viewBox="0 0 300.10001 151.19"
   version="1.1"
   id="svg1"
   xml:space="preserve"
   inkscape:version="1.4 (e7c3feb1, 2024-10-09)"
   sodipodi:docname="fisheye_blue_combined.svg"
   xmlns:inkscape="http://www.inkscape.org/namespaces/inkscape"
   xmlns:sodipodi="http://sodipodi.sourceforge.net/DTD/sodipodi-0.dtd"
   xmlns="http://www.w3.org/2000/svg"
   xmlns:svg="http://www.w3.org/2000/svg"><sodipodi:namedview
     id="namedview1"
     pagecolor="#ffffff"
     bordercolor="#000000"
     borderopacity="0.25"
     inkscape:showpageshadow="2"
     inkscape:pageopacity="0.0"
     inkscape:pagecheckerboard="true"
     inkscape:deskcolor="#d1d1d1"
     inkscape:document-units="mm"
     showborder="true"
     inkscape:zoom="1.0644824"
     inkscape:cx="664.64225"
     inkscape:cy="197.74868"
     inkscape:window-width="1512"
     inkscape:window-height="916"
     inkscape:window-x="0"
     inkscape:window-y="38"
     inkscape:window-maximized="0"
     inkscape:current-layer="layer1" /><defs
     id="defs1"><inkscape:path-effect
       effect="mirror_symmetry"
       start_point="-54.897999,0"
       end_point="273.15599,0"
       center_point="109.129,0"
       id="path-effect29"
       is_visible="true"
       lpeversion="1.2"
       lpesatellites=""
       mode="free"
       discard_orig_path="false"
       fuse_paths="false"
       oposite_fuse="false"
       split_items="false"
       split_open="false"
       link_styles="false" /><inkscape:path-effect
       effect="mirror_symmetry"
       start_point="302.02492,532.26178"
       end_point="553.38234,532.26178"
       center_point="427.70363,532.26178"
       id="path-effect28"
       is_visible="true"
       lpeversion="1.2"
       lpesatellites=""
       mode="free"
       discard_orig_path="false"
       fuse_paths="true"
       oposite_fuse="false"
       split_items="false"
       split_open="false"
       link_styles="false" /><inkscape:path-effect
       effect="mirror_symmetry"
       start_point="427.70363,602.56107"
       end_point="427.70363,461.96249"
       center_point="427.70363,532.26178"
       id="path-effect27"
       is_visible="true"
       lpeversion="1.2"
       lpesatellites=""
       mode="free"
       discard_orig_path="false"
       fuse_paths="true"
       oposite_fuse="false"
       split_items="false"
       split_open="false"
       link_styles="false" /><inkscape:path-effect
       effect="mirror_symmetry"
       start_point="328.37601,581.80506"
       end_point="328.37601,441.21665"
       center_point="328.37601,511.51085"
       id="path-effect26"
       is_visible="true"
       lpeversion="1.2"
       lpesatellites=""
       mode="free"
       discard_orig_path="false"
       fuse_paths="false"
       oposite_fuse="false"
       split_items="false"
       split_open="false"
       link_styles="false" /><inkscape:path-effect
       effect="mirror_symmetry"
       start_point="328.37598,581.80506"
       end_point="328.37598,441.21572"
       center_point="328.37598,511.51039"
       id="path-effect25"
       is_visible="true"
       lpeversion="1.2"
       lpesatellites=""
       mode="free"
       discard_orig_path="false"
       fuse_paths="true"
       oposite_fuse="false"
       split_items="false"
       split_open="false"
       link_styles="false" /><inkscape:path-effect
       effect="mirror_symmetry"
       start_point="202.69727,511.51367"
       end_point="454.05469,511.51367"
       center_point="328.37598,511.51367"
       id="path-effect24"
       is_visible="true"
       lpeversion="1.2"
       lpesatellites=""
       mode="free"
       discard_orig_path="true"
       fuse_paths="true"
       oposite_fuse="false"
       split_items="false"
       split_open="false"
       link_styles="false" /><inkscape:path-effect
       effect="mirror_symmetry"
       start_point="328.3761,581.82999"
       end_point="328.3761,441.23141"
       center_point="328.3761,511.5307"
       id="path-effect23"
       is_visible="true"
       lpeversion="1.2"
       lpesatellites=""
       mode="free"
       discard_orig_path="false"
       fuse_paths="true"
       oposite_fuse="false"
       split_items="false"
       split_open="false"
       link_styles="false" /><inkscape:path-effect
       effect="mirror_symmetry"
       start_point="-161.77806,489.68408"
       end_point="169.7681,489.68408"
       center_point="3.99502,489.68408"
       id="path-effect22"
       is_visible="true"
       lpeversion="1.2"
       lpesatellites=""
       mode="free"
       discard_orig_path="false"
       fuse_paths="false"
       oposite_fuse="false"
       split_items="false"
       split_open="false"
       link_styles="false" /><inkscape:path-effect
       effect="mirror_symmetry"
       start_point="-137.81445,470.7549"
       end_point="113.54297,470.65"
       center_point="-12.13574,470.70245"
       id="path-effect21"
       is_visible="true"
       lpeversion="1.2"
       lpesatellites=""
       mode="free"
       discard_orig_path="false"
       fuse_paths="false"
       oposite_fuse="false"
       split_items="false"
       split_open="false"
       link_styles="false" /><inkscape:path-effect
       effect="mirror_symmetry"
       start_point="-137.81445,470.75489"
       end_point="113.54297,470.75489"
       center_point="-12.13574,470.75489"
       id="path-effect20"
       is_visible="true"
       lpeversion="1.2"
       lpesatellites=""
       mode="free"
       discard_orig_path="false"
       fuse_paths="false"
       oposite_fuse="false"
       split_items="false"
       split_open="false"
       link_styles="false" /><inkscape:path-effect
       effect="mirror_symmetry"
       start_point="-136.08021,490.25"
       end_point="115.27721,488.55"
       center_point="-10.4015,489.4"
       id="path-effect19"
       is_visible="true"
       lpeversion="1.2"
       lpesatellites=""
       mode="free"
       discard_orig_path="false"
       fuse_paths="false"
       oposite_fuse="false"
       split_items="false"
       split_open="false"
       link_styles="false" /><inkscape:path-effect
       effect="mirror_symmetry"
       start_point="-12.13574,527.25696"
       end_point="-12.13574,418.16795"
       center_point="-12.13574,472.71246"
       id="path-effect18"
       is_visible="true"
       lpeversion="1.2"
       lpesatellites=""
       mode="free"
       discard_orig_path="false"
       fuse_paths="true"
       oposite_fuse="false"
       split_items="false"
       split_open="false"
       link_styles="false" /><inkscape:path-effect
       effect="mirror_symmetry"
       start_point="-11.887553,413.82"
       end_point="-12.080001,522.91"
       center_point="-11.983777,468.365"
       id="path-effect17"
       is_visible="true"
       lpeversion="1.2"
       lpesatellites=""
       mode="free"
       discard_orig_path="false"
       fuse_paths="false"
       oposite_fuse="false"
       split_items="false"
       split_open="false"
       link_styles="false" /><inkscape:path-effect
       effect="mirror_symmetry"
       start_point="-12.13574,558.96879"
       end_point="-12.13574,418.16795"
       center_point="-12.13574,488.56837"
       id="path-effect16"
       is_visible="true"
       lpeversion="1.2"
       lpesatellites=""
       mode="free"
       discard_orig_path="false"
       fuse_paths="false"
       oposite_fuse="false"
       split_items="false"
       split_open="false"
       link_styles="false" /><inkscape:path-effect
       effect="mirror_symmetry"
       start_point="-137.81445,488.56837"
       end_point="113.54297,488.56837"
       center_point="-12.13574,488.56837"
       id="path-effect15"
       is_visible="true"
       lpeversion="1.2"
       lpesatellites=""
       mode="free"
       discard_orig_path="false"
       fuse_paths="true"
       oposite_fuse="false"
       split_items="false"
       split_open="false"
       link_styles="false" /><inkscape:path-effect
       effect="mirror_symmetry"
       start_point="-12.13574,558.96982"
       end_point="-12.13574,418.16714"
       center_point="-12.13574,488.56848"
       id="path-effect14"
       is_visible="true"
       lpeversion="1.2"
       lpesatellites=""
       mode="free"
       discard_orig_path="false"
       fuse_paths="true"
       oposite_fuse="false"
       split_items="false"
       split_open="false"
       link_styles="false" /><inkscape:path-effect
       effect="mirror_symmetry"
       start_point="-138.00383,488.56814"
       end_point="113.68343,488.56814"
       center_point="-12.1602,488.56814"
       id="path-effect13"
       is_visible="true"
       lpeversion="1.2"
       lpesatellites=""
       mode="free"
       discard_orig_path="false"
       fuse_paths="true"
       oposite_fuse="false"
       split_items="false"
       split_open="false"
       link_styles="false" /><inkscape:path-effect
       effect="mirror_symmetry"
       start_point="-138.00383,488.56814"
       end_point="113.68343,488.56814"
       center_point="-12.1602,488.56814"
       id="path-effect12"
       is_visible="true"
       lpeversion="1.2"
       lpesatellites=""
       mode="free"
       discard_orig_path="false"
       fuse_paths="true"
       oposite_fuse="false"
       split_items="false"
       split_open="false"
       link_styles="false" /><inkscape:path-effect
       effect="mirror_symmetry"
       start_point="-4.2421875,342.40816"
       end_point="247.11523,342.40816"
       center_point="121.43652,342.40816"
       id="path-effect11"
       is_visible="true"
       lpeversion="1.2"
       lpesatellites=""
       mode="free"
       discard_orig_path="false"
       fuse_paths="true"
       oposite_fuse="false"
       split_items="false"
       split_open="false"
       link_styles="false" /><inkscape:path-effect
       effect="mirror_symmetry"
       start_point="121.43652,412.83467"
       end_point="121.43652,271.98172"
       center_point="121.43652,342.40819"
       id="path-effect10"
       is_visible="true"
       lpeversion="1.2"
       lpesatellites=""
       mode="X"
       discard_orig_path="false"
       fuse_paths="true"
       oposite_fuse="false"
       split_items="false"
       split_open="false"
       link_styles="false" /><inkscape:path-effect
       effect="mirror_symmetry"
       start_point="-4.4304306,342.40768"
       end_point="247.25681,342.40768"
       center_point="121.41319,342.40768"
       id="path-effect9"
       is_visible="true"
       lpeversion="1.2"
       lpesatellites=""
       mode="Y"
       discard_orig_path="false"
       fuse_paths="true"
       oposite_fuse="false"
       split_items="false"
       split_open="false"
       link_styles="false" /><inkscape:path-effect
       effect="mirror_symmetry"
       start_point="-4.4304306,342.40768"
       end_point="247.25681,342.40768"
       center_point="121.41319,342.40768"
       id="path-effect8"
       is_visible="false"
       lpeversion="1.2"
       lpesatellites=""
       mode="free"
       discard_orig_path="false"
       fuse_paths="true"
       oposite_fuse="false"
       split_items="false"
       split_open="false"
       link_styles="false" /></defs><g
     id="mirror-flip"
     transform="translate(300.10001,0) scale(-1,1)"><g
     inkscape:label="Layer 1"
     inkscape:groupmode="layer"
     id="layer1"
     transform="translate(54.897999,-52.387505)"><g
       id="g29"
       transform="matrix(1.0735648,0,0,1.0735648,-24.045032,-8.2145879)" /><path
       id="path7"
       style="fill:#00336e;fill-opacity:1;stroke-width:0.28121"
       d="M 34.399442,87.177635 A 40.803513,40.803413 0 0 0 -6.4037521,127.98083 40.803513,40.803413 0 0 0 34.399442,168.78454 40.803513,40.803413 0 0 0 75.203152,127.98083 40.803513,40.803413 0 0 0 34.399442,87.177635 Z M 16.377803,105.23235 a 9.9404278,9.9406719 0 0 1 9.940478,9.94048 9.9404278,9.9406719 0 0 1 -9.940478,9.94099 9.9404278,9.9406719 0 0 1 -9.9404791,-9.94099 9.9404278,9.9406719 0 0 1 9.9404791,-9.94048 z M 222.036,128.06742 c -6.19492,4.61721 -12.92631,11.18817 -19.20047,18.12801 27.2541,18.95133 39.9821,47.91546 41.32734,48.76115 3.97056,-17.51247 -5.20037,-53.77338 -17.17634,-66.97311 -0.021,6.5e-4 -4.95053,0.0839 -4.95053,0.0839 z m 3.6e-4,0.001 c -6.19492,-4.61721 -12.92631,-11.18816 -19.20047,-18.12801 27.25411,-18.951335 39.9821,-47.915457 41.32734,-48.761153 3.97057,17.512463 -5.20037,53.773393 -17.17634,66.973123 -0.021,-6.6e-4 -4.95053,-0.084 -4.95053,-0.084 z M 80.027662,52.387505 c -0.27177,6.44e-4 -0.51128,0.02317 -0.78083,0.02532 -2.3828,0.01548 -4.74299,0.08928 -7.07864,0.225309 -0.72123,0.0425 -1.40853,0.111351 -2.11149,0.167432 -9.30413,0.517138 -18.584663,2.290586 -27.671701,5.056539 -1.404623,0.413764 -2.797239,0.853867 -4.181657,1.311548 -18.877497,6.240826 -35.8850021,16.496944 -51.049597,29.475202 -1.328301,1.13679 -2.639648,2.29785 -3.939811,3.47524 -0.31624,0.28556 -0.647001,0.5594 -0.960665,0.84697 -6.027691,5.043092 -11.671112,10.498915 -17.267679,16.006275 -3.285689,3.16158 -6.554808,6.33722 -9.829374,9.48831 -2.319317,2.23118 -4.653413,4.42111 -6.987171,6.61407 -1.022668,0.9611 -2.034555,1.94758 -3.062346,2.8975 l -0.0047,0.005 c 10e-4,7.5e-4 0.0036,0.003 0.0047,0.005 3.391803,3.1349 6.752168,6.33823 10.106361,9.56531 3.255961,3.13353 6.505436,6.29087 9.77253,9.43457 5.596567,5.50735 11.239987,10.96317 17.267679,16.00626 0.274103,0.25127 0.563675,0.49025 0.839742,0.74 17.2590559,15.65569 37.001211,27.80206 59.285787,34.36741 9.088479,2.76688 18.370652,4.54072 27.676352,5.05809 0.70315,0.0559 1.39057,0.12487 2.11201,0.16744 2.33566,0.13602 4.69581,0.20984 7.07864,0.2253 0.26937,0.002 0.50929,0.0241 0.78083,0.0248 2.707673,-0.002 5.377323,-0.10195 8.024323,-0.25942 0.53999,-0.0325 1.05196,-0.0867 1.58337,-0.12557 0.0936,-0.007 0.18487,-0.0195 0.27853,-0.0264 9.294032,-0.50888 18.565545,-2.26813 27.644315,-5.02243 20.60238,-6.04925 39.0357,-16.86458 55.34184,-30.81931 7.5e-4,-7.5e-4 0.002,-0.002 0.005,-0.003 6e-4,-5e-4 8.2e-4,-3e-4 0.002,-0.002 1.28613,-1.10074 2.55501,-2.22636 3.81475,-3.36517 0.35729,-0.32201 0.72964,-0.63097 1.08366,-0.95549 6.19577,-5.18372 11.99042,-10.80034 17.74,-16.46463 6.39914,-6.16372 12.73678,-12.37233 19.18746,-18.34255 0.0755,-0.0668 0.14855,-0.13683 0.22427,-0.20361 -7.5e-4,-7.5e-4 -0.003,-0.003 -0.005,-0.004 l 0.005,-0.005 c -0.0743,-0.0655 -0.14595,-0.13465 -0.22014,-0.20051 -7.5e-4,-7.5e-4 -0.002,-0.002 -0.005,-0.003 -0.30373,-0.28109 -0.60213,-0.57415 -0.90537,-0.85627 -6.13716,-5.70993 -12.18424,-11.61276 -18.28209,-17.48628 -5.74959,-5.66429 -11.54423,-11.280403 -17.74,-16.464125 -0.29913,-0.27423 -0.61422,-0.53527 -0.9157,-0.8077 -17.28124,-15.658966 -37.04889,-27.802245 -59.36434,-34.34777 -9.06725,-2.748121 -18.326423,-4.50318 -27.608135,-5.01158 -0.0937,-0.0065 -0.18518,-0.02022 -0.27906,-0.02687 -0.53139,-0.03874 -1.04338,-0.09254 -1.58337,-0.125057 -2.64719,-0.157354 -5.31697,-0.257805 -8.024833,-0.259932 z M 34.857812,73.374337 A 54.60627,54.60627 0 0 1 89.464305,127.98032 54.60627,54.60627 0 0 1 34.857812,182.5868 54.60627,54.60627 0 0 1 -19.748157,127.98032 54.60627,54.60627 0 0 1 34.857812,73.374337 Z" /><rect
       style="fill:#00336e;stroke-width:0.255074"
       id="rect1"
       width="4.8489304"
       height="2.0255027"
       x="222.22757"
       y="126.84007" /></g></g></svg>
